<?xml version="1.0" encoding="UTF-8"?>
<svg version="1.1" xmlns="http://www.w3.org/2000/svg" width="400" height="400">
<path d="M0 0 C10.10003598 0.97005995 16.11774744 5.39445077 22.6875 12.9375 C25.72808838 17.71556745 26.23866375 22.3054761 26.125 27.875 C26.10695313 29.02742188 26.08890625 30.17984375 26.0703125 31.3671875 C26.04710937 32.23601562 26.02390625 33.10484375 26 34 C26.77730469 34.29003906 27.55460937 34.58007812 28.35546875 34.87890625 C31.93490798 36.3963347 33.1104399 37.57079835 35 41 C35.86137958 45.6970955 35.97384869 49.99227085 33.859375 54.3515625 C29.05842816 61.09815622 23.80881653 64.08213166 15.79620361 65.59857178 C11.17936343 66.26137399 6.61694581 66.24566127 1.9609375 66.1953125 C0.95406891 66.1924826 -0.05279968 66.18965271 -1.09017944 66.18673706 C-4.26858001 66.17564829 -7.44668632 66.15056543 -10.625 66.125 C-12.79556881 66.11495557 -14.9661421 66.1058323 -17.13671875 66.09765625 C-22.42457755 66.07574616 -27.71226774 66.04238336 -33 66 C-32.65791504 67.0204541 -32.31583008 68.0409082 -31.96337891 69.09228516 C-31.50939962 70.44953073 -31.05546308 71.8067906 -30.6015625 73.1640625 C-30.37670166 73.83445557 -30.15184082 74.50484863 -29.92016602 75.19555664 C-28.45064856 79.59336299 -27.05843855 84.00515465 -25.7734375 88.4609375 C-24.59421882 92.33210993 -23.27970827 96.16087518 -22 100 C-7.48 100 7.04 100 22 100 C23.27306052 90.68150586 23.27306052 90.68150586 24.54272461 81.36254883 C24.70264893 80.19747803 24.86257324 79.03240723 25.02734375 77.83203125 C25.27085571 76.04889526 25.27085571 76.04889526 25.51928711 74.22973633 C25.93126796 71.46178576 26.42012688 68.73691087 27 66 C28.98 66.495 28.98 66.495 31 67 C30.81824219 68.4540625 30.81824219 68.4540625 30.6328125 69.9375 C30.55289063 70.57776123 30.47296875 71.21802246 30.390625 71.87768555 C30.21181671 73.30634404 30.03211235 74.73489063 29.8515625 76.16333008 C29.37762094 79.9231842 28.91810576 83.68360025 28.4921875 87.44921875 C28.40952637 88.16013672 28.32686523 88.87105469 28.24169922 89.60351562 C28.01093126 91.59324824 27.78655623 93.58371919 27.5625 95.57421875 C27.04962522 98.69776861 26.42236749 101.18141149 25 104 C22.6307087 105.18464565 21.14983236 105.14532005 18.50610352 105.17700195 C17.10939171 105.19625481 17.10939171 105.19625481 15.6844635 105.21589661 C14.17196266 105.22697701 14.17196266 105.22697701 12.62890625 105.23828125 C11.59563705 105.246353 10.56236786 105.25442474 9.49778748 105.26274109 C7.30965862 105.27658524 5.12150814 105.28730591 2.93334961 105.29516602 C-0.4204971 105.31241257 -3.77336681 105.35630014 -7.12695312 105.40039062 C-9.24999273 105.41051431 -11.37304073 105.41903142 -13.49609375 105.42578125 C-15.00555824 105.45204338 -15.00555824 105.45204338 -16.54551697 105.47883606 C-17.47981033 105.47591049 -18.4141037 105.47298492 -19.37670898 105.4699707 C-20.19896469 105.47583694 -21.0212204 105.48170319 -21.86839294 105.48774719 C-24 105 -24 105 -25.70887756 103.17814636 C-27.47334679 100.2014556 -28.44502718 97.16840873 -29.5 93.875 C-29.71648193 93.20629883 -29.93296387 92.53759766 -30.15600586 91.84863281 C-31.59006113 87.39141951 -32.93407155 82.90977136 -34.2421875 78.4140625 C-35.40892921 74.69732861 -36.81786689 71.07469407 -38.23046875 67.4453125 C-39 65 -39 65 -39 61 C-35.99820524 59.99940175 -34.918825 59.99244639 -31.90600586 60.42480469 C-27.08966336 61.03005935 -22.35431124 61.17795582 -17.50390625 61.203125 C-16.63031967 61.20882507 -15.75673309 61.21452515 -14.85667419 61.22039795 C-13.02221869 61.22977753 -11.18774687 61.2363536 -9.35327148 61.24023438 C-6.57310314 61.2499629 -3.79366819 61.28106264 -1.01367188 61.3125 C11.79469253 61.50947862 11.79469253 61.50947862 24 58 C24.71728271 57.68192383 25.43456543 57.36384766 26.17358398 57.03613281 C28.85969041 55.51229433 29.15403672 53.92833444 30 51 C30.99510849 47.53462587 30.99510849 47.53462587 31 44 C29.23358828 41.19810554 27.96950178 39.48475089 25 38 C24.236875 38.94875 23.47375 39.8975 22.6875 40.875 C20.84465954 43.16609895 19.53162583 44.31224944 17 46 C13.39376565 46.32783949 10.87409887 46.40343025 7.5625 44.875 C6 43 6 43 5.5625 40.0625 C6.03846865 36.73071942 6.64124979 35.35875021 9 33 C12.01490557 31.99503148 14.04181692 31.89664697 17.1875 31.9375 C18.08855469 31.94652344 18.98960937 31.95554687 19.91796875 31.96484375 C20.60503906 31.97644531 21.29210937 31.98804687 22 32 C21.71494077 25.17283143 21.0210712 18.71472891 17 13 C13.05919032 9.61698875 8.64529025 7.26985774 4 5 C4.05800781 6.00160156 4.11601562 7.00320312 4.17578125 8.03515625 C4.67387134 20.12750806 4.67387134 20.12750806 2 24.1875 C-4.21787366 30.88631417 -11.56323299 31.44830189 -20.29296875 32.44921875 C-26.6111032 33.38795106 -31.82310248 35.12685562 -36.6875 39.3125 C-38.49140945 43.00621934 -38.15584272 45.09903082 -37 49 C-35.08261145 50.96287824 -35.08261145 50.96287824 -33 52 C-33.33 52.99 -33.66 53.98 -34 55 C-36.25 54.875 -36.25 54.875 -39 54 C-41.79662627 50.82545126 -42.90029516 48.69793385 -43.5 44.5 C-42.71035045 38.97245315 -40.44564116 36.10729961 -36.0625 32.75 C-30.77481491 29.72846566 -26.27790953 28.70978654 -20.25 28.1875 C-13.72462678 27.50284874 -8.210661 26.28290917 -3 22 C-0.92954801 18.89432202 -0.75936642 18.30333364 -0.83984375 14.8046875 C-0.85080078 14.00675781 -0.86175781 13.20882812 -0.87304688 12.38671875 C-0.90495117 11.14341797 -0.90495117 11.14341797 -0.9375 9.875 C-0.99912125 6.91261563 -1.02062364 3.96391202 -1 1 C-0.67 0.67 -0.34 0.34 0 0 Z M10 38 C10 38.99 10 39.98 10 41 C12.24875747 41.86850174 12.24875747 41.86850174 15 42 C17.85157455 40.30252228 17.85157455 40.30252228 20 38 C20 37.34 20 36.68 20 36 C14.67829506 35.70437633 14.67829506 35.70437633 10 38 Z " fill="#828282" transform="translate(204,96)"/>
<path d="M0 0 C2.31 0 4.62 0 7 0 C7 0.33 7 0.66 7 1 C5.35 1.33 3.7 1.66 2 2 C2.32613281 2.96679688 2.65226563 3.93359375 2.98828125 4.9296875 C5.16701169 11.41245402 7.3310678 17.88824809 9.2265625 24.4609375 C10.40578118 28.33210993 11.72029173 32.16087518 13 36 C27.52 36 42.04 36 57 36 C58.27306052 26.68150586 58.27306052 26.68150586 59.54272461 17.36254883 C59.70264893 16.19747803 59.86257324 15.03240723 60.02734375 13.83203125 C60.18968506 12.64327393 60.35202637 11.4545166 60.51928711 10.22973633 C60.93126796 7.46178576 61.42012688 4.73691087 62 2 C63.32 2.33 64.64 2.66 66 3 C65.81824219 4.4540625 65.81824219 4.4540625 65.6328125 5.9375 C65.55289063 6.57776123 65.47296875 7.21802246 65.390625 7.87768555 C65.21181671 9.30634404 65.03211235 10.73489063 64.8515625 12.16333008 C64.37762094 15.9231842 63.91810576 19.68360025 63.4921875 23.44921875 C63.40952637 24.16013672 63.32686523 24.87105469 63.24169922 25.60351562 C63.01093126 27.59324824 62.78655623 29.58371919 62.5625 31.57421875 C62.04962522 34.69776861 61.42236749 37.18141149 60 40 C57.6307087 41.18464565 56.14983236 41.14532005 53.50610352 41.17700195 C52.10939171 41.19625481 52.10939171 41.19625481 50.6844635 41.21589661 C49.67612961 41.22328354 48.66779572 41.23067047 47.62890625 41.23828125 C46.59563705 41.246353 45.56236786 41.25442474 44.49778748 41.26274109 C42.30965862 41.27658524 40.12150814 41.28730591 37.93334961 41.29516602 C34.5795029 41.31241257 31.22663319 41.35630014 27.87304688 41.40039062 C25.75000727 41.41051431 23.62695927 41.41903142 21.50390625 41.42578125 C19.99444176 41.45204338 19.99444176 41.45204338 18.45448303 41.47883606 C17.52018967 41.47591049 16.5858963 41.47298492 15.62329102 41.4699707 C14.80103531 41.47583694 13.9787796 41.48170319 13.13160706 41.48774719 C11 41 11 41 9.29112244 39.17814636 C7.52665321 36.2014556 6.55497282 33.16840873 5.5 29.875 C5.28496826 29.20774902 5.06993652 28.54049805 4.84838867 27.85302734 C4.22373461 25.90459531 3.61042023 23.95293053 3 22 C2.69707031 21.04609375 2.39414063 20.0921875 2.08203125 19.109375 C0.43387316 13.78841791 -0.85693098 8.45155993 -2 3 C-1.34 3.66 -0.68 4.32 0 5 C0 3.35 0 1.7 0 0 Z " fill="#B3B3B3" transform="translate(169,160)"/>
<path d="M0 0 C0.97710937 -0.01417969 1.95421875 -0.02835938 2.9609375 -0.04296875 C5.625 0.1875 5.625 0.1875 8.625 2.1875 C8.23971495 8.35206078 6.15413975 12.17377748 2.625 17.1875 C3.45 17.6 4.275 18.0125 5.125 18.4375 C5.95 19.015 6.775 19.5925 7.625 20.1875 C7.625 21.5075 7.625 22.8275 7.625 24.1875 C5.31256208 24.21435412 3.0000373 24.23382841 0.6875 24.25 C-0.60027344 24.26160156 -1.88804687 24.27320313 -3.21484375 24.28515625 C-6.375 24.1875 -6.375 24.1875 -7.375 23.1875 C-7.76314914 20.01123734 -7.59711636 18.54184229 -5.87890625 15.80078125 C-4.91791016 14.66189453 -4.91791016 14.66189453 -3.9375 13.5 C-1.39494636 10.51400413 -1.39494636 10.51400413 0.625 7.1875 C-1.685 6.5275 -3.995 5.8675 -6.375 5.1875 C-6.375 -0.67325015 -5.33354858 0.03499704 0 0 Z " fill="#9D9D9D" transform="translate(163.375,217.8125)"/>
<path d="M0 0 C1.92578125 0.03515625 1.92578125 0.03515625 4 1 C5.23046875 3.87109375 5.23046875 3.87109375 6.1875 7.4375 C7.31505439 11.82522627 7.31505439 11.82522627 9 16 C9.13415472 18.6723621 9.04318541 21.32250488 9 24 C8.01 24.33 7.02 24.66 6 25 C4.5 23.6875 4.5 23.6875 3 22 C3 21.01 3 20.02 3 19 C2.01 19 1.02 19 0 19 C-0.33 20.65 -0.66 22.3 -1 24 C-2.65 23.67 -4.3 23.34 -6 23 C-7.30062885 17.20628968 -6.59299084 14.2785885 -4 9 C-3.44380836 7.54714428 -2.90203134 6.08868605 -2.375 4.625 C-1 1 -1 1 0 0 Z " fill="#565656" transform="translate(235,217)"/>
<path d="M0 0 C3.63 0 7.26 0 11 0 C11.33 1.65 11.66 3.3 12 5 C9.69 5.33 7.38 5.66 5 6 C5 6.99 5 7.98 5 9 C7.97 9.495 7.97 9.495 11 10 C10.67 11.32 10.34 12.64 10 14 C9.360625 14.103125 8.72125 14.20625 8.0625 14.3125 C7.381875 14.539375 6.70125 14.76625 6 15 C5.67 15.99 5.34 16.98 5 18 C6.98 17.67 8.96 17.34 11 17 C11.66 18.32 12.32 19.64 13 21 C8.42102388 23.19790854 5.19040052 24.49432386 0 24 C-1.61686074 22.38313926 -1.12989349 20.6092385 -1.1328125 18.37890625 C-1.13410156 17.44369141 -1.13539063 16.50847656 -1.13671875 15.54492188 C-1.13285156 14.56072266 -1.12898437 13.57652344 -1.125 12.5625 C-1.12886719 11.58216797 -1.13273438 10.60183594 -1.13671875 9.59179688 C-1.13542969 8.65529297 -1.13414062 7.71878906 -1.1328125 6.75390625 C-1.13168457 5.89095947 -1.13055664 5.0280127 -1.12939453 4.13891602 C-1 2 -1 2 0 0 Z " fill="#696969" transform="translate(176,218)"/>
<path d="M0 0 C0.66 0.33 1.32 0.66 2 1 C2 2.65 2 4.3 2 6 C0.35 6 -1.3 6 -3 6 C-2.566875 6.721875 -2.13375 7.44375 -1.6875 8.1875 C-1.130625 9.115625 -0.57375 10.04375 0 11 C0.8353125 12.2065625 0.8353125 12.2065625 1.6875 13.4375 C3.2914055 16.56893455 3.45323903 18.52516741 3 22 C1.47885413 24.32174895 0.25268314 24.89756089 -2.3125 25.9375 C-6.1420917 26.02656027 -8.03266041 24.27726061 -11 22 C-10.67 20.68 -10.34 19.36 -10 18 C-7.69 18.33 -5.38 18.66 -3 19 C-3.8971875 17.6696875 -3.8971875 17.6696875 -4.8125 16.3125 C-5.8953125 14.6728125 -5.8953125 14.6728125 -7 13 C-7.598125 12.154375 -8.19625 11.30875 -8.8125 10.4375 C-10 8 -10 8 -9.875 5.375 C-7.91231732 0.04771845 -5.52491446 -0.47020549 0 0 Z " fill="#545454" transform="translate(203,218)"/>
<path d="M0 0 C1.93166016 0.01740234 1.93166016 0.01740234 3.90234375 0.03515625 C5.19269531 0.04417969 6.48304688 0.05320313 7.8125 0.0625 C8.81152344 0.07410156 9.81054688 0.08570313 10.83984375 0.09765625 C11.49984375 1.41765625 12.15984375 2.73765625 12.83984375 4.09765625 C12.17984375 4.75765625 11.51984375 5.41765625 10.83984375 6.09765625 C9.51984375 6.09765625 8.19984375 6.09765625 6.83984375 6.09765625 C7.08347656 7.15919922 7.08347656 7.15919922 7.33203125 8.2421875 C7.8494659 11.15176231 7.97289933 13.83278527 7.96484375 16.78515625 C7.96742188 17.73777344 7.97 18.69039062 7.97265625 19.671875 C7.83984375 22.09765625 7.83984375 22.09765625 6.83984375 24.09765625 C5.18984375 23.76765625 3.53984375 23.43765625 1.83984375 23.09765625 C1.83984375 17.48765625 1.83984375 11.87765625 1.83984375 6.09765625 C0.18984375 6.09765625 -1.46015625 6.09765625 -3.16015625 6.09765625 C-3.54234392 4.44150968 -3.87410727 2.77308601 -4.16015625 1.09765625 C-3.16015625 0.09765625 -3.16015625 0.09765625 0 0 Z " fill="#3F3F3F" transform="translate(213.16015625,219.90234375)"/>
<path d="M0 0 C9.28167671 1.52158635 18.57033079 1.56171786 27.95703125 1.7265625 C29.77670937 1.76484078 31.59637129 1.80389781 33.41601562 1.84375 C37.8253857 1.93865234 42.23483992 2.02306304 46.64453125 2.1015625 C45.98453125 2.4315625 45.32453125 2.7615625 44.64453125 3.1015625 C44.64453125 3.7615625 44.64453125 4.4215625 44.64453125 5.1015625 C38.96623047 5.12620955 33.28796056 5.14439712 27.60961914 5.15649414 C25.6763454 5.16153506 23.74307549 5.16836769 21.80981445 5.17700195 C19.03726253 5.18907815 16.26476084 5.19479307 13.4921875 5.19921875 C12.18750267 5.20696068 12.18750267 5.20696068 10.85646057 5.21485901 C8.78547311 5.21505435 6.71458801 5.16364418 4.64453125 5.1015625 C4.31453125 4.7715625 3.98453125 4.4415625 3.64453125 4.1015625 C1.31635161 3.73395519 -1.01730725 3.39914669 -3.35546875 3.1015625 C-3.02546875 5.4115625 -2.69546875 7.7215625 -2.35546875 10.1015625 C-3.01546875 8.7815625 -3.67546875 7.4615625 -4.35546875 6.1015625 C-5.01546875 6.1015625 -5.67546875 6.1015625 -6.35546875 6.1015625 C-6.68546875 4.1215625 -7.01546875 2.1415625 -7.35546875 0.1015625 C-4.5824564 -1.28494368 -3.03983285 -0.58235096 0 0 Z " fill="#777777" transform="translate(172.35546875,156.8984375)"/>
<path d="M0 0 C1.32 0.33 2.64 0.66 4 1 C2.66666667 11.66666667 1.33333333 22.33333333 0 33 C-0.66 31.68 -1.32 30.36 -2 29 C-2.66 31.31 -3.32 33.62 -4 36 C-19.18 36 -34.36 36 -50 36 C-50.33 34.68 -50.66 33.36 -51 32 C-50.34 32.66 -49.68 33.32 -49 34 C-47.02060859 34.29136164 -47.02060859 34.29136164 -44.73388672 34.22705078 C-43.85312469 34.22689972 -42.97236267 34.22674866 -42.06491089 34.22659302 C-41.11278717 34.21627045 -40.16066345 34.20594788 -39.1796875 34.1953125 C-37.71899338 34.19106766 -37.71899338 34.19106766 -36.22879028 34.18673706 C-33.11073651 34.17551913 -29.99296732 34.1504117 -26.875 34.125 C-24.76432706 34.11497228 -22.65364962 34.10584607 -20.54296875 34.09765625 C-15.36188165 34.07557458 -10.18096115 34.04208129 -5 34 C-4.88406494 33.14768799 -4.76812988 32.29537598 -4.64868164 31.41723633 C-4.21567771 28.2394938 -3.78127825 25.06194599 -3.34594727 21.88452148 C-3.15821739 20.51220151 -2.97103552 19.13980646 -2.78442383 17.76733398 C-2.51529523 15.78870052 -2.24399842 13.81036236 -1.97265625 11.83203125 C-1.81031494 10.64327393 -1.64797363 9.4545166 -1.48071289 8.22973633 C-1.06873204 5.46178576 -0.57987312 2.73691087 0 0 Z " fill="#D4D4D4" transform="translate(231,162)"/>
<path d="M0 0 C-4.79299092 2.11997675 -8.62554583 3.15118606 -13.875 3.375 C-20.65231264 3.79589774 -27.09827129 5.75344703 -31.7421875 10.94921875 C-33.70163358 14.14396779 -33.58684475 16.34852156 -33 20 C-30.13384514 22.49540371 -30.13384514 22.49540371 -27 24 C-27.33 24.99 -27.66 25.98 -28 27 C-30.25 26.875 -30.25 26.875 -33 26 C-35.79662627 22.82545126 -36.90029516 20.69793385 -37.5 16.5 C-36.71035045 10.97245315 -34.44564116 8.10729961 -30.0625 4.75 C-24.1793292 1.38818811 -19.0384418 0.46369999 -12.375 -0.1875 C-11.51648438 -0.28224609 -10.65796875 -0.37699219 -9.7734375 -0.47460938 C-3.38521275 -1.12840425 -3.38521275 -1.12840425 0 0 Z " fill="#868686" transform="translate(198,124)"/>
<path d="M0 0 C1.45599609 0.00773438 1.45599609 0.00773438 2.94140625 0.015625 C3.90949219 0.01046875 4.87757813 0.0053125 5.875 0 C8.50390625 0.265625 8.50390625 0.265625 11.50390625 2.265625 C11.26066309 6.4818397 11.13252867 8.62045989 8.12890625 11.703125 C5.50390625 13.265625 5.50390625 13.265625 2.50390625 13.265625 C3.16390625 10.955625 3.82390625 8.645625 4.50390625 6.265625 C2.19390625 6.265625 -0.11609375 6.265625 -2.49609375 6.265625 C-3.15609375 4.945625 -3.81609375 3.625625 -4.49609375 2.265625 C-2.49609375 0.265625 -2.49609375 0.265625 0 0 Z " fill="#646464" transform="translate(160.49609375,217.734375)"/>
<path d="M0 0 C-0.32158729 3.00148136 -0.98153021 3.98205792 -3.1875 6.125 C-8.05874628 9.37249752 -12.18302512 10.2769988 -18 10 C-18 9.67 -18 9.34 -18 9 C-36.315 8.505 -36.315 8.505 -55 8 C-55 7.67 -55 7.34 -55 7 C-53.90123535 6.98541748 -52.8024707 6.97083496 -51.67041016 6.95581055 C-47.55128195 6.89735957 -43.43267396 6.82013419 -39.31396484 6.73754883 C-37.53931185 6.70451779 -35.76455931 6.67641965 -33.98974609 6.65356445 C-22.33643275 6.49945479 -10.06463829 0 0 0 Z " fill="#DFDFDF" transform="translate(235,151)"/>
<path d="M0 0 C1.32 0 2.64 0 4 0 C6.4744657 7.98734511 8.61375277 15.61843511 9 24 C7.68 23.67 6.36 23.34 5 23 C4.15862957 20.1062867 3.3266964 17.21040603 2.5 14.3125 C2.26152344 13.49587891 2.02304688 12.67925781 1.77734375 11.83789062 C0.63535132 7.80828875 -0.34500623 4.23495153 0 0 Z " fill="#CACACA" transform="translate(188,169)"/>
<path d="M0 0 C0 3 0 3 -1.375 4.9375 C-6.76057361 9.16902212 -12.70266325 11.08541067 -19.5 11.5 C-26.38850125 11.92992065 -32.38959483 13.70035735 -37.625 18.3125 C-39.36220828 21.70795254 -39.29503825 24.23826235 -39 28 C-39.66 27.67 -40.32 27.34 -41 27 C-41.42784976 22.72150239 -41.32357971 20.53234081 -39.0625 16.8125 C-32.3531555 9.86221219 -23.37981494 9.2875083 -14.28125 8.39453125 C-11.15546757 8.36134656 -11.15546757 8.36134656 -10 7 C-10.99 6.67 -11.98 6.34 -13 6 C-11.37750059 5.16180842 -9.75191503 4.3295884 -8.125 3.5 C-7.22007812 3.0359375 -6.31515625 2.571875 -5.3828125 2.09375 C-3 1 -3 1 -1 1 C-0.67 0.67 -0.34 0.34 0 0 Z " fill="#DADADA" transform="translate(205,117)"/>
<path d="M0 0 C0.33 0 0.66 0 1 0 C1.02686553 1.97909398 1.04633375 3.95828971 1.0625 5.9375 C1.07410156 7.03964844 1.08570313 8.14179688 1.09765625 9.27734375 C1 12 1 12 0 13 C-1.50418739 13.09311889 -3.01271356 13.11746028 -4.51977539 13.11352539 C-5.96115623 13.11341209 -5.96115623 13.11341209 -7.43165588 13.11329651 C-8.476436 13.10813522 -9.52121613 13.10297394 -10.59765625 13.09765625 C-11.66165146 13.0962413 -12.72564667 13.09482635 -13.82188416 13.09336853 C-17.23545083 13.08775064 -20.648953 13.07519511 -24.0625 13.0625 C-26.37044176 13.05748731 -28.67838455 13.052924 -30.98632812 13.04882812 C-36.65757426 13.0377754 -42.32878253 13.02101987 -48 13 C-48 12.67 -48 12.34 -48 12 C-32.82 11.34 -17.64 10.68 -2 10 C-1.34 6.7 -0.68 3.4 0 0 Z " fill="#1C1C1C" transform="translate(229,187)"/>
<path d="M0 0 C3.39850385 1.40627745 5.07332191 2.8664421 7 6 C7.865931 11.23459193 7.84290487 15.65662037 5 20.1875 C4.01 21.0846875 4.01 21.0846875 3 22 C3 21.34 3 20.68 3 20 C2.01 20.33 1.02 20.66 0 21 C0.4640625 19.9790625 0.4640625 19.9790625 0.9375 18.9375 C2.17947399 15.50380721 2.86928458 12.66003174 3 9 C1.23358828 6.19810554 -0.03049822 4.48475089 -3 3 C-3.99 3.99 -4.98 4.98 -6 6 C-5.67 4.35 -5.34 2.7 -5 1 C-3.35 1 -1.7 1 0 1 C0 0.67 0 0.34 0 0 Z " fill="#C6C6C6" transform="translate(232,131)"/>
<path d="M0 0 C2.33944736 0.28730055 4.6739143 0.61936779 7 1 C7 1.66 7 2.32 7 3 C7.99 3.33 8.98 3.66 10 4 C7 5 7 5 3 5 C3.05800781 5.95261719 3.11601562 6.90523438 3.17578125 7.88671875 C3.53990054 18.00923514 3.53990054 18.00923514 1.88671875 21.04296875 C0.5 22.375 0.5 22.375 -2 24 C-1.7525 23.04867187 -1.7525 23.04867187 -1.5 22.078125 C-0.82902157 17.94741407 -0.93372161 13.92553867 -1 9.75 C-1.04551862 6.82770487 -1.047344 3.92349185 -1 1 C-0.67 0.67 -0.34 0.34 0 0 Z " fill="#868686" transform="translate(204,96)"/>
<path d="M0 0 C1.32 0 2.64 0 4 0 C4.25515919 7.52719602 3.28297723 14.58851545 2 22 C0.68 22 -0.64 22 -2 22 C-2.10541952 16.93327435 -1.72702304 12.0681519 -1 7.0625 C-0.90460938 6.37865234 -0.80921875 5.69480469 -0.7109375 4.99023438 C-0.47820863 3.32622293 -0.23971452 1.66301947 0 0 Z " fill="#9C9C9C" transform="translate(212,168)"/>
<path d="M0 0 C-4.79368448 2.12028352 -8.68849977 3.16866516 -13.9375 3.4375 C-19.04910908 3.72903664 -22.7532288 4.86526805 -27.2578125 7.2578125 C-27.83273438 7.50273437 -28.40765625 7.74765625 -29 8 C-29.66 7.67 -30.32 7.34 -31 7 C-25.65039056 1.05598952 -19.97406598 0.55513599 -12.375 -0.1875 C-11.51648438 -0.28224609 -10.65796875 -0.37699219 -9.7734375 -0.47460938 C-3.38521275 -1.12840425 -3.38521275 -1.12840425 0 0 Z " fill="#5A5A5A" transform="translate(198,124)"/>
<path d="M0 0 C1.93166016 0.01740234 1.93166016 0.01740234 3.90234375 0.03515625 C5.19269531 0.04417969 6.48304688 0.05320313 7.8125 0.0625 C8.81152344 0.07410156 9.81054688 0.08570313 10.83984375 0.09765625 C11.49984375 1.41765625 12.15984375 2.73765625 12.83984375 4.09765625 C11.84984375 4.59265625 11.84984375 4.59265625 10.83984375 5.09765625 C10.83984375 4.10765625 10.83984375 3.11765625 10.83984375 2.09765625 C6.54984375 2.09765625 2.25984375 2.09765625 -2.16015625 2.09765625 C-2.16015625 3.08765625 -2.16015625 4.07765625 -2.16015625 5.09765625 C-0.51015625 5.09765625 1.13984375 5.09765625 2.83984375 5.09765625 C2.83984375 11.03765625 2.83984375 16.97765625 2.83984375 23.09765625 C2.50984375 23.09765625 2.17984375 23.09765625 1.83984375 23.09765625 C1.83984375 17.48765625 1.83984375 11.87765625 1.83984375 6.09765625 C0.18984375 6.09765625 -1.46015625 6.09765625 -3.16015625 6.09765625 C-3.54234392 4.44150968 -3.87410727 2.77308601 -4.16015625 1.09765625 C-3.16015625 0.09765625 -3.16015625 0.09765625 0 0 Z " fill="#BABABA" transform="translate(213.16015625,219.90234375)"/>
<path d="M0 0 C0.99 0.33 1.98 0.66 3 1 C3 1.33 3 1.66 3 2 C6.3 2 9.6 2 13 2 C12.34 3.65 11.68 5.3 11 7 C10.01 7 9.02 7 8 7 C8.99 5.68 9.98 4.36 11 3 C9.51793505 3.254496 8.03931385 3.52911762 6.5625 3.8125 C5.73878906 3.96332031 4.91507813 4.11414063 4.06640625 4.26953125 C3.38449219 4.51058594 2.70257813 4.75164062 2 5 C1.67 5.99 1.34 6.98 1 8 C0.01 8.495 0.01 8.495 -1 9 C2.4019487 11.09350689 5.05272412 11.17942163 9 11 C8.67 11.66 8.34 12.32 8 13 C1.77777778 13.35897436 1.77777778 13.35897436 -1.4375 11.875 C-3 10 -3 10 -3.4375 7.0625 C-2.96903694 3.78325857 -2.21663014 2.40134932 0 0 Z " fill="#C7C7C7" transform="translate(213,129)"/>
<path d="M0 0 C0 0.33 0 0.66 0 1 C-0.969375 1.309375 -1.93875 1.61875 -2.9375 1.9375 C-5.84065792 2.69523342 -5.84065792 2.69523342 -7 4 C-7.40969833 6.93617134 -7.64141796 9.0872129 -5.8828125 11.58984375 C-5.42648438 12.09644531 -4.97015625 12.60304687 -4.5 13.125 C-2 16 -2 16 -2 20 C-4.31 20 -6.62 20 -9 20 C-8.34 21.32 -7.68 22.64 -7 24 C-8.32 23.34 -9.64 22.68 -11 22 C-10.67 20.68 -10.34 19.36 -10 18 C-7.69 18.33 -5.38 18.66 -3 19 C-3.8971875 17.6696875 -3.8971875 17.6696875 -4.8125 16.3125 C-5.8953125 14.6728125 -5.8953125 14.6728125 -7 13 C-7.598125 12.154375 -8.19625 11.30875 -8.8125 10.4375 C-10 8 -10 8 -9.875 5.375 C-7.89692081 0.00592792 -5.54214744 -0.3694765 0 0 Z " fill="#C9C9C9" transform="translate(203,218)"/>
<path d="M0 0 C1.98 0.495 1.98 0.495 4 1 C3.67 3.97 3.34 6.94 3 10 C2.34 10 1.68 10 1 10 C0.67 14.29 0.34 18.58 0 23 C-0.33 23 -0.66 23 -1 23 C-1.02706445 20.10410348 -1.04687029 17.20846205 -1.0625 14.3125 C-1.07087891 13.49587891 -1.07925781 12.67925781 -1.08789062 11.83789062 C-1.10442051 7.75500916 -1.03035098 3.98348293 0 0 Z " fill="#818181" transform="translate(231,162)"/>
<path d="M0 0 C0.33 0 0.66 0 1 0 C1.125 2.875 1.125 2.875 1 6 C-1.4805082 8.4805082 -3.53958568 8.67338368 -6.95703125 9.046875 C-9.91786196 8.97894007 -11.70914709 7.78972884 -14 6 C-13.67 4.68 -13.34 3.36 -13 2 C-13 2.99 -13 3.98 -13 5 C-8.5214021 5.17563129 -4.97415868 5.22085338 -1 3 C-0.67 2.01 -0.34 1.02 0 0 Z " fill="#919191" transform="translate(225,132)"/>
<path d="M0 0 C2.96175123 0.61277612 4.38058783 1.25372522 7 3 C6.01 3.495 6.01 3.495 5 4 C5.99 5.32 6.98 6.64 8 8 C4.1670768 6.53447054 0.70751245 4.85375622 -3 3 C-3 7.95 -3 12.9 -3 18 C-3.66 18.33 -4.32 18.66 -5 19 C-5 13.39 -5 7.78 -5 2 C-2.69 2 -0.38 2 2 2 C1.34 1.34 0.68 0.68 0 0 Z " fill="#CECECE" transform="translate(211,98)"/>
<path d="M0 0 C0.33 0.99 0.66 1.98 1 3 C-0.4375 5.1875 -0.4375 5.1875 -2 7 C0.64 7 3.28 7 6 7 C6 7.66 6 8.32 6 9 C2.04 9 -1.92 9 -6 9 C-4.90810185 3.54050926 -4.31208438 2.98528919 0 0 Z " fill="#030303" transform="translate(163,232)"/>
<path d="M0 0 C2.64 0.33 5.28 0.66 8 1 C8.33 2.65 8.66 4.3 9 6 C4.38 6 -0.24 6 -5 6 C-5 5.67 -5 5.34 -5 5 C-1.04 5 2.92 5 7 5 C7 4.34 7 3.68 7 3 C4.36 3 1.72 3 -1 3 C-0.67 2.01 -0.34 1.02 0 0 Z " fill="#787878" transform="translate(162,236)"/>
<path d="M0 0 C0.78375 0.04125 1.5675 0.0825 2.375 0.125 C2.705 1.445 3.035 2.765 3.375 4.125 C1.395 4.125 -0.585 4.125 -2.625 4.125 C-2.625 5.115 -2.625 6.105 -2.625 7.125 C-3.615 6.795 -4.605 6.465 -5.625 6.125 C-4.86443086 2.32215429 -4.27658992 0.20364714 0 0 Z " fill="#181818" transform="translate(200.625,218.875)"/>
<path d="M0 0 C1.32 0 2.64 0 4 0 C4.8723412 2.99480917 5.10829766 5.63575911 5.0625 8.75 C5.05347656 9.54921875 5.04445312 10.3484375 5.03515625 11.171875 C5.01775391 12.07679688 5.01775391 12.07679688 5 13 C3.0549 10.08235 2.54723683 8.37462715 2 5 C1.34 5 0.68 5 0 5 C0 3.35 0 1.7 0 0 Z " fill="#7E7E7E" transform="translate(188,169)"/>
<path d="M0 0 C1.43739513 -0.02712066 2.87493863 -0.04645067 4.3125 -0.0625 C5.51326172 -0.07990234 5.51326172 -0.07990234 6.73828125 -0.09765625 C9 0 9 0 12 1 C11.44225728 4.23490776 10.62788492 5.97855006 8 8 C7.01 8 6.02 8 5 8 C5.66 5.69 6.32 3.38 7 1 C4.69 1 2.38 1 0 1 C0 0.67 0 0.34 0 0 Z " fill="#444444" transform="translate(158,223)"/>
<path d="M0 0 C0.38969971 0.64743164 0.77939941 1.29486328 1.1809082 1.96191406 C2.82525007 4.19860416 2.82525007 4.19860416 5.36010742 4.54589844 C6.26607666 4.5668457 7.1720459 4.58779297 8.10546875 4.609375 C9.08837891 4.64160156 10.07128906 4.67382812 11.08398438 4.70703125 C12.62022461 4.72830078 12.62022461 4.72830078 14.1875 4.75 C15.22326172 4.77964844 16.25902344 4.80929688 17.32617188 4.83984375 C19.88419312 4.91057245 22.44130158 4.96325257 25 5 C25 5.33 25 5.66 25 6 C21.02119772 6.19585353 17.04194844 6.3802867 13.0625 6.5625 C11.35803711 6.64661133 11.35803711 6.64661133 9.61914062 6.73242188 C8.53955078 6.78076172 7.45996094 6.82910156 6.34765625 6.87890625 C4.84730835 6.94960327 4.84730835 6.94960327 3.31665039 7.02172852 C1 7 1 7 0 6 C-0.04080783 4.00041636 -0.04254356 1.99954746 0 0 Z " fill="#6B6B6B" transform="translate(178,193)"/>
<path d="M0 0 C0.33 0 0.66 0 1 0 C1.02686553 1.97909398 1.04633375 3.95828971 1.0625 5.9375 C1.07410156 7.03964844 1.08570313 8.14179688 1.09765625 9.27734375 C1 12 1 12 0 13 C-2.35313555 13.07271741 -4.70833668 13.08370868 -7.0625 13.0625 C-8.35285156 13.05347656 -9.64320313 13.04445312 -10.97265625 13.03515625 C-11.97167969 13.02355469 -12.97070312 13.01195312 -14 13 C-14 12.67 -14 12.34 -14 12 C-10.04 12 -6.08 12 -2 12 C-1.34 8.04 -0.68 4.08 0 0 Z " fill="#5C5C5C" transform="translate(229,187)"/>
<path d="M0 0 C2.64 1.65 5.28 3.3 8 5 C7.67 5.99 7.34 6.98 7 8 C2.25 7.25 2.25 7.25 0 5 C-0.125 2.375 -0.125 2.375 0 0 Z " fill="#949494" transform="translate(163,143)"/>
<path d="M0 0 C0 3 0 3 -2 6 C-4.6015625 6.51171875 -4.6015625 6.51171875 -7.625 6.6875 C-9.12933594 6.78611328 -9.12933594 6.78611328 -10.6640625 6.88671875 C-11.82035156 6.94279297 -11.82035156 6.94279297 -13 7 C-5.23529412 1 -5.23529412 1 -1 1 C-0.67 0.67 -0.34 0.34 0 0 Z " fill="#A6A6A6" transform="translate(205,117)"/>
<path d="M0 0 C1.98 0.99 1.98 0.99 4 2 C4 5.63 4 9.26 4 13 C2.02 13.99 2.02 13.99 0 15 C0.165 14.484375 0.33 13.96875 0.5 13.4375 C1.42606851 8.92291602 1.41003609 4.40636279 0 0 Z " fill="#525252" transform="translate(235,135)"/>
<path d="M0 0 C0.99 0 1.98 0 3 0 C3.33 3.3 3.66 6.6 4 10 C3.01 10 2.02 10 1 10 C0.67 6.7 0.34 3.4 0 0 Z " fill="#878787" transform="translate(193,183)"/>
<path d="M0 0 C-0.125 1.8125 -0.125 1.8125 -1 4 C-3.875 5.8125 -3.875 5.8125 -7 7 C-7.99 6.67 -8.98 6.34 -10 6 C-4.30769231 0 -4.30769231 0 0 0 Z " fill="#656565" transform="translate(235,151)"/>
<path d="M0 0 C3.78496138 1.51398455 4.0072198 2.0144396 6 6 C3.03 5.01 0.06 4.02 -3 3 C-3.99 3.99 -4.98 4.98 -6 6 C-5.67 4.35 -5.34 2.7 -5 1 C-3.35 1 -1.7 1 0 1 C0 0.67 0 0.34 0 0 Z " fill="#ABABAB" transform="translate(232,131)"/>
<path d="M0 0 C0.66 0.66 1.32 1.32 2 2 C2.66 1.34 3.32 0.68 4 0 C5.39431504 2.78863007 5.25660094 4.92078868 5 8 C4.01 8.66 3.02 9.32 2 10 C1.34 6.7 0.68 3.4 0 0 Z " fill="#AAAAAA" transform="translate(175,187)"/>
<path d="M0 0 C0.33 0.99 0.66 1.98 1 3 C2.27875 3.165 3.5575 3.33 4.875 3.5 C5.59429687 3.5928125 6.31359375 3.685625 7.0546875 3.78125 C9.00498344 4.0372485 9.00498344 4.0372485 11 4 C11 4.66 11 5.32 11 6 C7.44351804 6.90979771 5.56666256 7.23405628 2.125 5.8125 C1.42375 5.214375 0.7225 4.61625 0 4 C0 2.68 0 1.36 0 0 Z " fill="#2A2A2A" transform="translate(211,134)"/>
<path d="M0 0 C6.52307692 -0.36923077 6.52307692 -0.36923077 8.9375 1.5 C9.288125 1.995 9.63875 2.49 10 3 C7.36 2.67 4.72 2.34 2 2 C1.67 3.32 1.34 4.64 1 6 C0.67 4.02 0.34 2.04 0 0 Z " fill="#353535" transform="translate(204,98)"/>
<path d="M0 0 C-2.52956528 3.0916909 -5.22454612 3.90931332 -9 5 C-7.93411431 2.09303901 -7.29651501 1.15567038 -4.5 -0.3125 C-2 -1 -2 -1 0 0 Z " fill="#6A6A6A" transform="translate(176,127)"/>
<path d="M0 0 C2.375 0.25 2.375 0.25 5 1 C6.3125 3.0625 6.3125 3.0625 7 5 C4.11424181 4.60196439 3.17810487 4.20990931 1.25 1.9375 C0.8375 1.298125 0.425 0.65875 0 0 Z " fill="#585858" transform="translate(215,101)"/>
<path d="M0 0 C0.33 0.99 0.66 1.98 1 3 C-0.175625 3.6496875 -0.175625 3.6496875 -1.375 4.3125 C-4.21698375 5.89220247 -4.21698375 5.89220247 -6 9 C-5.69381595 5.32579134 -5.24228216 4.21864487 -2.4375 1.6875 C-1.633125 1.130625 -0.82875 0.57375 0 0 Z " fill="#191919" transform="translate(163,232)"/>
<path d="M0 0 C2.31 0 4.62 0 7 0 C6.67 0.99 6.34 1.98 6 3 C4.02 3 2.04 3 0 3 C0 2.01 0 1.02 0 0 Z " fill="#868686" transform="translate(217,158)"/>
<path d="M0 0 C1.32 0 2.64 0 4 0 C4 0.66 4 1.32 4 2 C3.01 2 2.02 2 1 2 C1.66 3.32 2.32 4.64 3 6 C1.68 5.34 0.36 4.68 -1 4 C-0.67 2.68 -0.34 1.36 0 0 Z " fill="#979797" transform="translate(193,236)"/>
<path d="M0 0 C0.433125 0.61875 0.86625 1.2375 1.3125 1.875 C2.99740483 4.2197245 2.99740483 4.2197245 6 6 C4.34385343 6.38218767 2.67542976 6.71395102 1 7 C0 6 0 6 -0.0625 2.9375 C-0.041875 1.968125 -0.02125 0.99875 0 0 Z " fill="#5D5D5D" transform="translate(178,193)"/>
</svg>
